<svg width="482" height="114" viewBox="0 0 482 114" fill="none" xmlns="http://www.w3.org/2000/svg">
<path d="M414.727 65.7416L398.315 65.2463C397.313 65.2161 396.47 66.2099 396.655 67.2023L402.272 97.242C402.401 97.9278 402.991 98.3758 403.69 98.317L418.631 97.0596C419.992 96.9451 420.676 95.1733 419.684 94.3337L417.789 92.7306C416.003 91.219 415.039 88.9062 415.15 86.3992L416.003 67.164C416.038 66.381 415.485 65.7645 414.727 65.7416Z" stroke="white" stroke-width="7"/>
<path d="M443.835 29.1311L393.946 29.6676C391.206 29.6971 389 31.9269 389 34.6674V58C389 60.7614 391.239 63 394 63H436.778C438.99 63 440.938 61.5471 441.57 59.4276L448.681 35.5583C449.642 32.3307 447.203 29.0949 443.835 29.1311Z" stroke="white" stroke-width="8"/>
<path d="M426.573 65.5259L426.582 65.5H417.661L417.077 77.5H426.858L425.817 76.565L424.987 75.82V74.7049V70.5246V70.1038L425.125 69.7062L426.573 65.5259Z" stroke="white" stroke-width="5"/>
<path d="M433 28.5L422.5 66.5" stroke="white" stroke-width="8"/>
<path d="M456 14.6513L464.917 14.5667L464.984 25.7733" stroke="white" stroke-width="5"/>
<path d="M465 5.65127L473.917 5.56672L473.984 16.7733" stroke="white" stroke-width="5"/>
<g style="mix-blend-mode:lighten">
<path d="M3.3 57.95C3.3 50.25 4.84 43.3933 7.92 37.38C11.0733 31.3667 15.5467 26.71 21.34 23.41C27.1333 20.0367 33.9533 18.35 41.8 18.35C48.5467 18.35 54.56 19.6333 59.84 22.2C65.1933 24.6933 69.52 28.25 72.82 32.87C76.1933 37.49 78.43 42.88 79.53 49.04H53.79C52.6167 46.4733 50.93 44.4933 48.73 43.1C46.6033 41.6333 44.1467 40.9 41.36 40.9C37.2533 40.9 33.99 42.44 31.57 45.52C29.2233 48.6 28.05 52.7433 28.05 57.95C28.05 63.1567 29.2233 67.3 31.57 70.38C33.99 73.46 37.2533 75 41.36 75C44.1467 75 46.6033 74.3033 48.73 72.91C50.93 71.4433 52.6167 69.4267 53.79 66.86H79.53C78.43 73.02 76.1933 78.41 72.82 83.03C69.52 87.65 65.1933 91.2433 59.84 93.81C54.56 96.3033 48.5467 97.55 41.8 97.55C33.9533 97.55 27.1333 95.9 21.34 92.6C15.5467 89.2267 11.0733 84.5333 7.92 78.52C4.84 72.5067 3.3 65.65 3.3 57.95ZM117.802 97.77C111.569 97.77 105.959 96.4867 100.972 93.92C95.9856 91.3533 92.0623 87.6867 89.2023 82.92C86.4156 78.08 85.0223 72.4333 85.0223 65.98C85.0223 59.5267 86.4156 53.9167 89.2023 49.15C92.0623 44.31 95.9856 40.6067 100.972 38.04C105.959 35.4733 111.569 34.19 117.802 34.19C124.036 34.19 129.646 35.4733 134.632 38.04C139.619 40.6067 143.506 44.31 146.292 49.15C149.152 53.9167 150.582 59.5267 150.582 65.98C150.582 72.4333 149.152 78.08 146.292 82.92C143.506 87.6867 139.619 91.3533 134.632 93.92C129.646 96.4867 124.036 97.77 117.802 97.77ZM117.802 76.65C120.076 76.65 121.982 75.77 123.522 74.01C125.062 72.1767 125.832 69.5 125.832 65.98C125.832 62.46 125.062 59.82 123.522 58.06C121.982 56.2267 120.076 55.31 117.802 55.31C115.529 55.31 113.622 56.2267 112.082 58.06C110.542 59.82 109.772 62.46 109.772 65.98C109.772 69.5 110.506 72.1767 111.972 74.01C113.512 75.77 115.456 76.65 117.802 76.65ZM201.704 34.52C208.817 34.52 214.354 36.9033 218.314 41.67C222.347 46.4367 224.364 52.89 224.364 61.03V97H200.054V64.11C200.054 61.1767 199.247 58.8667 197.634 57.18C196.094 55.42 194.004 54.54 191.364 54.54C188.651 54.54 186.524 55.42 184.984 57.18C183.444 58.8667 182.674 61.1767 182.674 64.11V97H158.254V34.96H182.674V44.42C184.581 41.4867 187.111 39.1033 190.264 37.27C193.491 35.4367 197.304 34.52 201.704 34.52ZM270.703 30.56C269.383 30.4133 268.466 30.34 267.953 30.34C266.12 30.34 264.726 30.7067 263.773 31.44C262.82 32.1 262.16 33.2733 261.793 34.96H270.703V55.31H261.573V97H237.153V55.31H230.553V34.96H237.153C237.3 26.8933 239.83 20.66 244.743 16.26C249.73 11.7867 256.696 9.55 265.643 9.55C266.67 9.55 268.356 9.62333 270.703 9.77V30.56ZM313.027 30.56C311.707 30.4133 310.791 30.34 310.277 30.34C308.444 30.34 307.051 30.7067 306.097 31.44C305.144 32.1 304.484 33.2733 304.117 34.96H313.027V55.31H303.897V97H279.477V55.31H272.877V34.96H279.477C279.624 26.8933 282.154 20.66 287.067 16.26C292.054 11.7867 299.021 9.55 307.967 9.55C308.994 9.55 310.681 9.62333 313.027 9.77V30.56ZM379.662 65.43C379.662 67.1167 379.552 68.73 379.332 70.27H340.062C340.428 75.6233 342.665 78.3 346.772 78.3C349.412 78.3 351.318 77.09 352.492 74.67H378.342C377.462 79.07 375.592 83.03 372.732 86.55C369.945 89.9967 366.388 92.7467 362.062 94.8C357.808 96.78 353.115 97.77 347.982 97.77C341.822 97.77 336.322 96.4867 331.482 93.92C326.715 91.3533 322.975 87.6867 320.262 82.92C317.622 78.08 316.302 72.4333 316.302 65.98C316.302 59.5267 317.622 53.9167 320.262 49.15C322.975 44.31 326.715 40.6067 331.482 38.04C336.322 35.4733 341.822 34.19 347.982 34.19C354.142 34.19 359.605 35.4733 364.372 38.04C369.212 40.5333 372.952 44.1267 375.592 48.82C378.305 53.5133 379.662 59.05 379.662 65.43ZM354.912 59.6C354.912 57.5467 354.252 56.0067 352.932 54.98C351.612 53.88 349.962 53.33 347.982 53.33C343.655 53.33 341.125 55.42 340.392 59.6H354.912Z" fill="white"/>
</g>
</svg>
