<svg width="72" height="50" viewBox="0 0 72 50" fill="none" xmlns="http://www.w3.org/2000/svg">
<path d="M57.4808 23.5828L59.0533 23.624C61.1774 23.6796 62.9239 25.6616 62.731 27.7975L61.4572 41.8992C61.2873 43.7806 59.6628 45.0451 57.7914 44.7528L56.7022 44.5826C54.7993 44.2853 53.3497 42.4906 53.4585 40.5668L54.2489 26.5941C54.3487 24.8288 55.7351 23.5371 57.4808 23.5828Z" stroke="white" stroke-width="3"/>
<path d="M46.2693 4.14403L61.0855 4.32481C64.9179 4.37158 68 7.49161 68 11.3243V16.8391C68 20.7051 64.866 23.8391 61 23.8391H47.6795C44.4983 23.8391 41.7171 21.694 40.9091 18.617L39.4134 12.9214C38.2391 8.44943 41.646 4.08762 46.2693 4.14403Z" stroke="white" stroke-width="4"/>
<path d="M52.7108 30.5H51.2586V29.8852V27.4262V27.0823L51.1657 26.7511L50.8149 25.5H53.228L52.7108 30.5Z" stroke="white" stroke-width="5"/>
<path d="M44.4895 4.10537L50.1492 23.3443" stroke="white" stroke-width="3"/>
<path d="M4.45863 22.2002L4.45863 10.9821L13.3671 10.9821" stroke="white" stroke-width="3"/>
<path d="M18.8442 10.9776L27.7613 10.8931L27.8285 22.0997" stroke="white" stroke-width="3"/>
<path d="M27.795 27.2843L27.7861 38.5023L18.8776 38.491" stroke="white" stroke-width="3"/>
<path d="M13.4005 38.4886L4.48335 38.5619L4.42516 27.3552" stroke="white" stroke-width="3"/>
<line x1="11.296" y1="20.2952" x2="11.296" y2="28.0567" stroke="white"/>
<line x1="16.6716" y1="20.2952" x2="16.6716" y2="28.0567" stroke="white" stroke-width="2"/>
<line x1="19.806" y1="20.2952" x2="19.806" y2="28.0567" stroke="white" stroke-width="2"/>
<line x1="22.3403" y1="20.2952" x2="22.3403" y2="28.0567" stroke="white" stroke-width="0.8"/>
<line x1="9.01001" y1="20.2952" x2="9.01001" y2="28.0567" stroke="white" stroke-width="2"/>
</svg>
